# xmcd CD database file
#
# Track frame offsets:
#	150
#	13450
#	26526
#	42961
#	52625
#	66826
#	76923
#	90868
#	108020
#	122511
#	136397
#	147975
#	159233
#	173550
#	187338
#	199332
#	213957
#	226313
#	239220
#
# Disc length: 3428 seconds
#
# Revision: 0
# Processed by: cddbd v1.5.2PL0 Copyright (c) Steve Scherf et al.
# Submitted via: CDex 1.51
#
DISCID=fc0d6213
DTITLE=Various Artist - The Best of Bandstand Volume 2 CD 1
DYEAR=2010
DGENRE=Jazz
TTITLE0=Ella Fitzgerald - Old Devil Moon
TTITLE1=Les Brown and His Band of Renown - I've Got my Love to Keep me Warm
TTITLE2=Matt Monro - On Days Like These
TTITLE3=June Christy - I Should Care
TTITLE4=Gene Krupa and His Orchestra - How High the Moon
TTITLE5=Kay Starr - So Tired
TTITLE6=Bobby Darin - Mack the Knife
TTITLE7=Billie Holiday - But Not For Me
TTITLE8=Artie Shaw and His Orchestra - Begin the Beguine
TTITLE9=Perry Como - Wanted
TTITLE10=Keely Smith - You Go To My Head
TTITLE11=John Stevens - Don't Get Around Much Anymore
TTITLE12=Ben Webster - Oscar Peterson - In The Wee Small Hours
TTITLE13=Al Jolson - April Showers
TTITLE14=Della Reese - Take My Heart
TTITLE15=Mario Lanza - The Drinking Song (Drink, Drink, Drink)
TTITLE16=Eddie Calvert - Oh Mein Papa
TTITLE17=Chris Connor - Spring is Here
TTITLE18=Johnny Mathis - A Lovely Way to Spend an Evening
EXTD=YEAR: 2010
EXTT0=
EXTT1=
EXTT2=
EXTT3=
EXTT4=
EXTT5=
EXTT6=
EXTT7=
EXTT8=
EXTT9=
EXTT10=
EXTT11=
EXTT12=
EXTT13=
EXTT14=
EXTT15=
EXTT16=
EXTT17=
EXTT18=
PLAYORDER=
